<svg width="24" height="24" viewBox="0 0 24 24" fill="none" xmlns="http://www.w3.org/2000/svg">
<circle cx="12" cy="12" r="12" fill="#F0B90B"/>
<path d="M7.52459 11.9998L5.68859 13.8486L3.83984 11.9998L5.68859 10.1511L7.52459 11.9998ZM11.9998 7.52459L15.1618 10.6866L17.0106 8.83784L13.8486 5.68859L11.9998 3.83984L10.1511 5.68859L7.00184 8.83784L8.85059 10.6866L11.9998 7.52459ZM18.3111 10.1511L16.4751 11.9998L18.3238 13.8486L20.1598 11.9998L18.3111 10.1511ZM11.9998 16.4751L8.83784 13.3131L7.00184 15.1618L10.1638 18.3238L11.9998 20.1598L13.8486 18.3111L17.0106 15.1491L15.1618 13.3131L11.9998 16.4751ZM11.9998 13.8486L13.8486 11.9998L11.9998 10.1511L10.1511 11.9998L11.9998 13.8486Z" fill="white"/>
</svg>
