<svg width="59" height="50" viewBox="0 0 59 50" fill="none" xmlns="http://www.w3.org/2000/svg">
<g clip-path="url(#clip0_662_1954)">
<path d="M45.3189 13.4827C42.4427 16.8569 39.8242 19.2647 37.5328 20.6443C35.1478 22.0804 33.0226 22.4613 31.2171 21.7776C29.9028 21.2823 28.8839 20.2466 28.1901 18.7008C27.6975 17.6032 27.3597 16.221 27.1807 14.5769C26.6228 15.6671 25.9202 17.0749 25.0575 18.828C24.2849 20.5084 23.7735 21.5535 23.4942 22.0218C22.2102 24.4835 20.7499 25.5165 19.1543 25.0932C17.0372 24.5737 16.0311 21.8785 16.0796 16.8549C16.0796 16.4101 16.085 15.9255 16.0957 15.4047C13.4625 19.3045 10.7498 23.9176 8.01756 29.1444C7.387 30.353 6.64675 30.9661 5.817 30.9661C5.50811 30.9661 5.20999 30.8881 4.93206 30.7339C4.70393 30.6074 4.52694 30.493 4.39033 30.3847C4.17969 30.2137 4.02895 29.915 3.88023 29.3826C3.75102 28.9156 3.72343 28.3308 3.79678 27.6437C3.8661 27.0004 4.01078 26.0852 4.24026 24.8456C4.46637 23.6282 4.80891 22.1443 5.25844 20.433C6.69117 14.7014 8.44287 9.49073 10.4631 4.95298C10.6482 4.47114 10.9893 4.11919 11.451 3.93413C11.9147 3.74906 12.4032 3.76454 12.8642 3.97921C13.3312 4.19792 13.6475 4.54786 13.805 5.01893C13.9571 5.47856 13.9403 5.9281 13.7559 6.35744C11.9584 10.4201 10.4059 14.8966 9.12592 19.7042C11.2639 16.1153 13.4692 12.7371 15.7041 9.62936C16.6597 8.26325 17.6799 8.26123 18.3683 8.50283C19.0843 8.74374 19.5271 9.26596 19.6476 10.0136C19.7425 10.6105 19.7667 11.731 19.7209 13.4403C19.6765 14.8104 19.6543 15.9599 19.6543 16.8596C19.6543 18.583 19.7849 19.9283 20.044 20.8758C20.1503 20.7129 20.2627 20.5279 20.3804 20.322C20.5965 19.8899 21.0648 18.9323 21.8522 17.3105C23.7176 13.3972 25.0299 10.8979 25.861 9.67444C26.7917 8.3043 27.8065 7.72354 28.8759 7.94764L28.89 7.951C30.0872 8.23701 30.6942 9.39988 30.6942 11.4073C30.641 16.5581 31.6538 18.0554 32.5165 18.4027C33.0287 18.577 34.0785 18.507 36.1774 17.2021C37.9628 16.0918 40.1196 14.054 42.588 11.1455C42.8955 10.7761 43.3215 10.5614 43.8182 10.5298H43.8195C44.3108 10.4995 44.7475 10.6408 45.1183 10.949C45.4972 11.266 45.7058 11.6805 45.7381 12.1819C45.7684 12.6745 45.6271 13.1119 45.3189 13.4827Z" fill="#03294E"/>
<path d="M4.46217 8.79019C5.83844 8.79019 6.95413 7.6745 6.95413 6.29823C6.95413 4.92196 5.83844 3.80627 4.46217 3.80627C3.0859 3.80627 1.97021 4.92196 1.97021 6.29823C1.97021 7.6745 3.0859 8.79019 4.46217 8.79019Z" fill="#03294E"/>
<path d="M55.7786 0.222745C55.2659 -0.253035 54.2578 0.5175 54.2578 0.5175L52.1588 2.63597C52.1588 2.63597 46.8351 1.26044 46.6197 1.20392C46.3552 1.13998 46.1372 1.37619 45.8633 1.71873C45.5894 2.06059 45.5537 2.28199 45.9353 2.49667C46.3155 2.71201 49.3156 4.25981 49.3156 4.25981L49.9185 4.85538C49.9185 4.85538 49.9179 4.85605 49.9172 4.85672C49.9138 4.86076 49.9044 4.8722 49.8889 4.89104L48.0228 7.16497C48.0221 7.16497 48.0221 7.16564 48.0221 7.16564C47.6749 7.0223 46.8135 6.68649 46.8135 6.68649C46.8135 6.68649 46.5605 6.59699 46.4138 6.71947C46.2583 6.80561 46.1668 6.91328 46.0591 7.01759C45.9589 7.13535 45.8128 7.25245 45.9885 7.45972C46.1641 7.66699 48.4279 9.90794 48.6372 10.0822C48.8458 10.2559 48.9616 10.1085 49.078 10.0075C49.181 9.89851 49.2886 9.80565 49.3728 9.65019C49.4939 9.50147 49.4017 9.24978 49.4017 9.24978C49.4017 9.24978 49.0578 8.39176 48.9111 8.04587C48.9158 8.04183 48.9212 8.03779 48.9266 8.03375C49.2328 7.7962 50.7375 6.52162 51.1157 6.19994C51.1716 6.15351 51.2025 6.12727 51.2025 6.12727L51.8042 6.72485C51.8042 6.72485 53.3809 9.70941 53.5996 10.0876C53.819 10.4665 54.0397 10.4295 54.3789 10.1522C54.7187 9.87429 54.9529 9.6549 54.8863 9.39043C54.8278 9.17576 53.4004 3.86546 53.4004 3.86546L55.498 1.74632C55.498 1.74632 56.2591 0.730827 55.7786 0.222745ZM53.325 3.84594L53.3351 3.88296C53.3499 3.93612 54.7632 9.19595 54.821 9.40726C54.8735 9.61655 54.7066 9.79757 54.3365 10.0997C54.1474 10.2538 54.0168 10.3144 53.9146 10.2956C53.8264 10.2794 53.7429 10.2007 53.6582 10.054C53.4421 9.68115 51.8795 6.72283 51.8641 6.69322L51.2066 6.03642L51.1595 6.07612C51.1561 6.07881 51.105 6.12188 51.0202 6.19322C50.5619 6.57815 49.117 7.79216 48.8707 7.99203C48.8701 7.9927 48.8694 7.9927 48.8687 7.99337L48.8654 7.99607L48.829 8.02366L48.8297 8.025L48.8492 8.07211C48.9939 8.41397 49.3358 9.26661 49.3384 9.27334C49.3398 9.27536 49.4145 9.49205 49.3203 9.6078L49.3135 9.61789C49.2496 9.73566 49.1722 9.81507 49.0895 9.89919C49.0706 9.9187 49.0511 9.93889 49.0316 9.95908C49.0195 9.96918 49.008 9.97994 48.9959 9.99071C48.8916 10.0856 48.8223 10.1489 48.6803 10.0304H48.6796C48.4791 9.86352 46.2092 7.61585 46.0396 7.41598C45.9205 7.27466 45.9824 7.20467 46.0773 7.09902C46.0887 7.08623 46.0995 7.07412 46.1056 7.06604C46.1264 7.04585 46.1466 7.02566 46.1668 7.00615C46.2503 6.92203 46.329 6.84329 46.4461 6.77869L46.4562 6.77129C46.5524 6.69188 46.7307 6.72889 46.7893 6.74908C46.7974 6.75244 47.6534 7.08623 47.9966 7.22755L48.0457 7.24774L48.0767 7.20534C48.2705 6.94087 49.9529 4.91864 49.9704 4.89845L50.0094 4.85134L49.9656 4.8076L49.3627 4.21203L49.3465 4.19992C49.3162 4.18444 46.3431 2.6501 45.9683 2.43812C45.8209 2.35534 45.7415 2.27257 45.7247 2.18441C45.7045 2.08145 45.7637 1.9509 45.9158 1.76045C46.1655 1.4482 46.3754 1.21401 46.6029 1.26919C46.8155 1.32505 52.0888 2.68778 52.142 2.70124L52.1797 2.71134L54.3022 0.568645C54.3661 0.520865 55.2813 -0.146708 55.7295 0.269179C56.1528 0.716022 55.494 1.63797 55.4469 1.70258L53.325 3.84594Z" fill="#03294E"/>
<path d="M55.5527 1.78669L55.5466 1.79409L53.4753 3.88564C53.6031 4.36142 54.8959 9.16969 54.9518 9.37293C55.0285 9.67912 54.7687 9.92071 54.4215 10.204C54.2283 10.3622 54.0843 10.4335 53.9538 10.4335C53.9322 10.4335 53.9114 10.4315 53.8905 10.4281C53.7593 10.4039 53.6489 10.3063 53.5419 10.1219C53.3306 9.75651 51.8461 6.94759 51.7498 6.76522L51.1993 6.21878C51.1899 6.22618 51.1798 6.23493 51.1684 6.24502L51.1677 6.2457C50.8077 6.55055 49.3548 7.78206 48.9934 8.06672C49.0055 8.09431 49.0176 8.12459 49.0311 8.15622C49.0385 8.17506 49.0466 8.19391 49.0546 8.2141C49.0566 8.21881 49.0587 8.22419 49.0607 8.2289C49.0708 8.25245 49.0802 8.27668 49.091 8.30158C49.093 8.30696 49.0957 8.31235 49.0977 8.31773C49.1058 8.33859 49.1145 8.36013 49.1239 8.38166C49.1387 8.41935 49.1549 8.45771 49.1704 8.49674C49.1966 8.56067 49.2222 8.6246 49.2478 8.68718C49.3628 8.9705 49.4624 9.22017 49.4645 9.22488C49.4698 9.23833 49.5667 9.51155 49.4288 9.6872C49.3568 9.8191 49.27 9.90725 49.1859 9.99339C49.1663 10.0136 49.1468 10.0331 49.1273 10.054L49.1226 10.0587C49.1105 10.0688 49.0984 10.0795 49.0869 10.0903C48.9826 10.1845 48.8258 10.3265 48.5943 10.1334C48.3783 9.95436 46.1192 7.71745 45.9375 7.50278C45.7423 7.27263 45.8837 7.11381 45.9772 7.0095C45.9873 6.99739 45.9981 6.98595 46.0082 6.97384C46.0324 6.95028 46.0519 6.93009 46.0714 6.91058C46.1569 6.82511 46.2444 6.73696 46.3756 6.6636C46.5506 6.5243 46.8244 6.61919 46.8359 6.62323C46.8413 6.62524 47.0654 6.71273 47.3298 6.81636C47.3904 6.84059 47.4537 6.86549 47.5163 6.89039C47.6784 6.95432 47.8399 7.01825 47.9644 7.06872C47.9772 7.07411 47.9893 7.07882 48.0008 7.08286C48.0176 7.09026 48.0338 7.09699 48.0486 7.10304L48.023 7.16496C48.0223 7.16496 48.0223 7.16563 48.0223 7.16563L47.9967 7.22754C47.6535 7.08622 46.7975 6.75243 46.7895 6.74907C46.7309 6.72888 46.5526 6.69187 46.4563 6.77128L46.4462 6.77868C46.3292 6.84328 46.2504 6.92202 46.167 7.00614C46.1468 7.02565 46.1266 7.04584 46.1057 7.06603C46.0997 7.07411 46.0889 7.08622 46.0775 7.09901C45.9826 7.20466 45.9207 7.27465 46.0398 7.41597C46.2094 7.61584 48.4793 9.86351 48.6798 10.0304H48.6805C48.8225 10.1488 48.8918 10.0856 48.9961 9.9907C49.0082 9.97993 49.0196 9.96917 49.0317 9.95907C49.0513 9.93888 49.0708 9.91869 49.0896 9.89918C49.1724 9.81506 49.2498 9.73565 49.3137 9.61788L49.3204 9.60779C49.4147 9.49204 49.34 9.27535 49.3386 9.27333C49.3359 9.2666 48.9941 8.41396 48.8494 8.0721L48.8299 8.02499L48.8292 8.02365L48.8655 7.99606L48.8689 7.99337C48.8696 7.99269 48.8702 7.99269 48.8709 7.99202C49.1233 7.79955 50.5634 6.58083 51.0203 6.19321C51.1051 6.12187 51.1563 6.0788 51.1596 6.07611L51.2067 6.03641L51.8642 6.69321C51.8797 6.72282 53.4423 9.68114 53.6583 10.054C53.7431 10.2007 53.8266 10.2794 53.9147 10.2955C54.017 10.3144 54.1476 10.2538 54.3367 10.0997C54.7068 9.79756 54.8737 9.61654 54.8212 9.40725C54.7633 9.19594 53.3501 3.93611 53.3353 3.88295L53.3252 3.84593L55.447 1.70257C55.4942 1.63796 56.153 0.716013 55.7297 0.26917C55.2815 -0.146717 54.3663 0.520856 54.3023 0.568636L52.1798 2.71133L52.1422 2.70124C52.089 2.68778 46.8157 1.32504 46.603 1.26918C46.3756 1.214 46.1656 1.44819 45.916 1.76044C45.7639 1.95089 45.7047 2.08144 45.7248 2.1844C45.7417 2.27256 45.8211 2.35534 45.9685 2.43811C46.3433 2.65009 49.3164 4.18443 49.3467 4.19991L49.3628 4.21202L49.9658 4.80759L49.9187 4.85537C49.9187 4.85537 49.918 4.85604 49.9174 4.85671L49.8709 4.90315L49.8272 4.86008L49.2754 4.31498C49.0923 4.2201 46.2693 2.76315 45.9018 2.5552C45.7161 2.45022 45.6178 2.34053 45.5923 2.20998C45.564 2.0626 45.6293 1.90311 45.811 1.67632C46.0909 1.32638 46.3298 1.0646 46.636 1.13863C46.8406 1.19179 51.6617 2.43811 52.1388 2.56126L54.2169 0.464327C54.26 0.431353 55.2761 -0.335145 55.8246 0.17361C56.3414 0.720051 55.585 1.74362 55.5527 1.78669Z" fill="#03294E"/>
<path d="M55.7786 0.222745C55.2659 -0.253035 54.2578 0.5175 54.2578 0.5175L52.1588 2.63597C52.1588 2.63597 46.8351 1.26044 46.6197 1.20392C46.3552 1.13998 46.1372 1.37619 45.8633 1.71873C45.5894 2.06059 45.5537 2.28199 45.9353 2.49667C46.3155 2.71201 49.3156 4.25981 49.3156 4.25981L49.9185 4.85538C49.9185 4.85538 49.9179 4.85605 49.9172 4.85672C49.9138 4.86076 49.9044 4.8722 49.8889 4.89104C49.6621 5.16359 48.2065 6.91463 48.0228 7.16497C48.0221 7.16497 48.0221 7.16564 48.0221 7.16564C47.6749 7.0223 46.8135 6.68649 46.8135 6.68649C46.8135 6.68649 46.5605 6.59699 46.4138 6.71947C46.2583 6.80561 46.1668 6.91328 46.0591 7.01759C45.9589 7.13535 45.8128 7.25245 45.9885 7.45972C46.1641 7.66699 48.4279 9.90794 48.6372 10.0822C48.8458 10.2559 48.9616 10.1085 49.078 10.0075C49.181 9.89851 49.2886 9.80565 49.3728 9.65019C49.4939 9.50147 49.4017 9.24978 49.4017 9.24978C49.4017 9.24978 49.0578 8.39176 48.9111 8.04587C48.9158 8.04183 48.9212 8.03779 48.9266 8.03375C49.222 7.79216 50.7362 6.5196 51.1157 6.19994C51.1716 6.15351 51.2025 6.12727 51.2025 6.12727L51.8042 6.72485C51.8042 6.72485 53.3809 9.70941 53.5996 10.0876C53.819 10.4665 54.0397 10.4295 54.3789 10.1522C54.7187 9.87429 54.9529 9.6549 54.8863 9.39043C54.8278 9.17576 53.4004 3.86546 53.4004 3.86546L55.498 1.74632C55.498 1.74632 56.2591 0.730827 55.7786 0.222745ZM53.325 3.84594L53.3351 3.88296C53.3499 3.93612 54.7632 9.19595 54.821 9.40726C54.8735 9.61655 54.7066 9.79757 54.3365 10.0997C54.1474 10.2538 54.0168 10.3144 53.9146 10.2956C53.8264 10.2794 53.7429 10.2007 53.6582 10.054C53.4421 9.68115 51.8795 6.72283 51.8641 6.69322L51.2066 6.03642L51.1595 6.07612C51.1561 6.07881 51.105 6.12188 51.0202 6.19322C50.5619 6.57815 49.117 7.79216 48.8707 7.99203C48.8701 7.9927 48.8694 7.9927 48.8687 7.99337L48.8654 7.99607L48.829 8.02366L48.8297 8.025L48.8492 8.07211C48.9939 8.41397 49.3358 9.26661 49.3384 9.27334C49.3398 9.27536 49.4145 9.49205 49.3203 9.6078L49.3135 9.61789C49.2496 9.73566 49.1722 9.81507 49.0895 9.89919C49.0706 9.9187 49.0511 9.93889 49.0316 9.95908C49.0195 9.96918 49.008 9.97994 48.9959 9.99071C48.8916 10.0856 48.8223 10.1489 48.6803 10.0304H48.6796C48.4791 9.86352 46.2092 7.61585 46.0396 7.41598C45.9205 7.27466 45.9824 7.20467 46.0773 7.09902C46.0887 7.08623 46.0995 7.07412 46.1056 7.06604C46.1264 7.04585 46.1466 7.02566 46.1668 7.00615C46.2503 6.92203 46.329 6.84329 46.4461 6.77869L46.4562 6.77129C46.5524 6.69188 46.7307 6.72889 46.7893 6.74908C46.7974 6.75244 47.6534 7.08623 47.9966 7.22755L48.0457 7.24774L48.0767 7.20534C48.2705 6.94087 49.9529 4.91864 49.9704 4.89845L50.0094 4.85134L49.9656 4.8076L49.3627 4.21203L49.3465 4.19992C49.3162 4.18444 46.3431 2.6501 45.9683 2.43812C45.8209 2.35534 45.7415 2.27257 45.7247 2.18441C45.7045 2.08145 45.7637 1.9509 45.9158 1.76045C46.1655 1.4482 46.3754 1.21401 46.6029 1.26919C46.8155 1.32505 52.0888 2.68778 52.142 2.70124L52.1797 2.71134L54.3022 0.568645C54.3661 0.520865 55.2813 -0.146708 55.7295 0.269179C56.1528 0.716022 55.494 1.63797 55.4469 1.70258L53.325 3.84594Z" fill="#03294E"/>
<path d="M55.8246 0.17361C55.2761 -0.335145 54.26 0.431353 54.2169 0.464327L52.1388 2.56126C51.6617 2.43811 46.8406 1.19179 46.636 1.13863C46.3298 1.0646 46.0909 1.32638 45.811 1.67632C45.6293 1.90311 45.564 2.0626 45.5923 2.20998C45.6178 2.34053 45.7161 2.45022 45.9018 2.5552C46.2693 2.76315 49.0923 4.2201 49.2754 4.31498L49.8272 4.86008C49.5768 5.16156 48.2767 6.72484 48.0008 7.08286C48.0001 7.08286 48.0001 7.08353 48.0001 7.08353C47.9887 7.07882 47.9766 7.07411 47.9644 7.06872C47.8399 7.01825 47.6784 6.95432 47.5163 6.89039C47.4537 6.86482 47.3904 6.83992 47.3298 6.81636C47.0654 6.71273 46.8413 6.62524 46.8359 6.62323C46.8244 6.61919 46.5506 6.5243 46.3756 6.6636C46.2444 6.73696 46.1569 6.82511 46.0714 6.91058C46.0519 6.93009 46.0324 6.95028 46.0082 6.97384C45.9981 6.98595 45.9873 6.99739 45.9772 7.0095C45.8837 7.11381 45.7423 7.27263 45.9375 7.50278C46.1192 7.71745 48.3783 9.95436 48.5943 10.1334C48.8258 10.3265 48.9826 10.1845 49.0869 10.0903C49.0984 10.0795 49.1105 10.0688 49.1226 10.0587L49.1273 10.054C49.1468 10.0331 49.1663 10.0136 49.1859 9.99339C49.27 9.90725 49.3568 9.8191 49.4288 9.6872C49.5667 9.51155 49.4698 9.23833 49.4645 9.22488C49.4624 9.22017 49.3628 8.9705 49.2478 8.68718C49.2222 8.6246 49.1966 8.55999 49.1704 8.49674C49.1549 8.45771 49.1387 8.41935 49.1239 8.38166C49.1145 8.36013 49.1058 8.33859 49.0977 8.31773C49.0957 8.31235 49.093 8.30696 49.091 8.30158C49.0809 8.27668 49.0708 8.25245 49.0607 8.2289C49.0587 8.22419 49.0566 8.21881 49.0546 8.2141C49.0466 8.19391 49.0385 8.17506 49.0311 8.15622C49.0176 8.12459 49.0055 8.09431 48.9934 8.06672V8.06604C49.3393 7.78138 50.8097 6.54584 51.1677 6.2457L51.1684 6.24502C51.1798 6.23493 51.1899 6.22618 51.1993 6.21878L51.7498 6.76522C51.8461 6.94759 53.3306 9.75651 53.5419 10.1219C53.6489 10.3063 53.7593 10.4039 53.8905 10.4281C53.9114 10.4315 53.9322 10.4335 53.9538 10.4335C54.0843 10.4335 54.2283 10.3622 54.4215 10.204C54.7687 9.92071 55.0285 9.67912 54.9518 9.37293C54.8959 9.16969 53.6031 4.36142 53.4753 3.88564L55.5466 1.79409L55.5527 1.78669C55.585 1.74362 56.3414 0.720051 55.8246 0.17361ZM53.3252 3.84593L53.3353 3.88295C53.3501 3.93611 54.7633 9.19594 54.8212 9.40725C54.8737 9.61654 54.7068 9.79756 54.3367 10.0997C54.1476 10.2538 54.017 10.3144 53.9147 10.2955C53.8266 10.2794 53.7431 10.2007 53.6583 10.054C53.4423 9.68114 51.8797 6.72282 51.8642 6.69321L51.2067 6.03641L51.1596 6.07611C51.1563 6.0788 51.1051 6.12187 51.0203 6.19321C50.5621 6.57814 49.1172 7.79215 48.8709 7.99202C48.8702 7.99269 48.8696 7.99269 48.8689 7.99337L48.8655 7.99606L48.8299 8.02499L48.8494 8.0721C48.9941 8.41396 49.3359 9.2666 49.3386 9.27333C49.34 9.27535 49.4147 9.49204 49.3204 9.60779L49.3137 9.61788C49.2498 9.73565 49.1724 9.81506 49.0896 9.89918C49.0708 9.91869 49.0513 9.93888 49.0317 9.95907C49.0196 9.96917 49.0082 9.97993 48.9961 9.9907C48.8918 10.0856 48.8225 10.1488 48.6805 10.0304H48.6798C48.4793 9.86351 46.2094 7.61584 46.0398 7.41597C45.9207 7.27465 45.9826 7.20466 46.0775 7.09901C46.0889 7.08622 46.0997 7.07411 46.1057 7.06603C46.1266 7.04584 46.1468 7.02565 46.167 7.00614C46.2504 6.92202 46.3292 6.84328 46.4462 6.77868L46.4563 6.77128C46.5526 6.69187 46.7309 6.72888 46.7895 6.74907C46.7975 6.75243 47.6535 7.08622 47.9967 7.22754L48.0459 7.24773L48.0768 7.20533C48.2706 6.94086 49.953 4.91863 49.9705 4.89844L50.0096 4.85133L49.9658 4.80759L49.3628 4.21202L49.3467 4.19991C49.3164 4.18443 46.3433 2.65009 45.9685 2.43811C45.8211 2.35534 45.7417 2.27256 45.7248 2.1844C45.7047 2.08144 45.7639 1.95089 45.916 1.76044C46.1656 1.44819 46.3756 1.214 46.603 1.26918C46.8157 1.32504 52.089 2.68778 52.1422 2.70124L52.1798 2.71133L54.3023 0.568636C54.3663 0.520856 55.2815 -0.146717 55.7297 0.26917C56.153 0.716013 55.4942 1.63796 55.447 1.70257L53.3252 3.84593Z" fill="#03294E"/>
<path d="M55.4472 1.70262L53.3254 3.84599L53.3355 3.883C53.3503 3.93617 54.7635 9.19599 54.8214 9.4073C54.8739 9.61659 54.707 9.79762 54.3368 10.0998C54.1477 10.2539 54.0172 10.3144 53.9149 10.2956C53.8267 10.2795 53.7433 10.2007 53.6585 10.054C53.4425 9.68119 51.8799 6.72288 51.8644 6.69327L51.2069 6.03646L51.1598 6.07617C51.1564 6.07886 51.1053 6.12193 51.0205 6.19326C50.5622 6.57819 49.1174 7.79221 48.8711 7.99207C48.8704 7.99275 48.8697 7.99275 48.8691 7.99342L48.8657 7.99611L48.8294 8.0237L48.83 8.02505L48.8495 8.07216C48.9942 8.41402 49.3361 9.26665 49.3388 9.27338C49.3401 9.2754 49.4148 9.49209 49.3206 9.60784L49.3139 9.61794C49.25 9.7357 49.1726 9.81511 49.0898 9.89923C49.071 9.91875 49.0514 9.93894 49.0319 9.95913C49.0198 9.96922 49.0084 9.97999 48.9963 9.99075C48.8919 10.0856 48.8226 10.1489 48.6806 10.0305H48.68C48.4794 9.86357 46.2095 7.61589 46.04 7.41602C45.9208 7.2747 45.9828 7.20471 46.0776 7.09906C46.0891 7.08627 46.0998 7.07416 46.1059 7.06609C46.1268 7.0459 46.147 7.02571 46.1671 7.00619C46.2506 6.92207 46.3293 6.84334 46.4464 6.77873L46.4565 6.77133C46.5527 6.69192 46.7311 6.72893 46.7896 6.74912C46.7977 6.75249 47.6537 7.08627 47.9969 7.2276L48.046 7.24778L48.077 7.20539C48.2708 6.94092 49.9532 4.91868 49.9707 4.89849L50.0097 4.85139L49.966 4.80764L49.363 4.21208L49.3469 4.19996C49.3166 4.18449 46.3435 2.65015 45.9686 2.43816C45.8212 2.35539 45.7418 2.27262 45.725 2.18446C45.7048 2.0815 45.764 1.95094 45.9161 1.7605C46.1658 1.44825 46.3758 1.21406 46.6032 1.26924C46.8159 1.32509 52.0892 2.68783 52.1423 2.70129L52.18 2.71139L54.3025 0.568692C54.3664 0.520912 55.2817 -0.146661 55.7299 0.269226C56.1531 0.716069 55.4943 1.63802 55.4472 1.70262Z" fill="#03294E"/>
<path d="M0 46.8754L1.72883 39.0402H3.39843L3.24903 40.4897H3.30893C3.62656 40.0214 3.99198 39.6384 4.4045 39.3417C4.81702 39.0456 5.30626 38.8969 5.87289 38.8969C6.42943 38.8969 6.86146 39.0382 7.16968 39.3201C7.47789 39.6021 7.68113 39.9924 7.78072 40.4897H7.84062C8.14883 40.0214 8.51626 39.6384 8.94359 39.3417C9.37092 39.0456 9.86756 38.8969 10.4342 38.8969C11.1098 38.8969 11.6166 39.1001 11.9544 39.5065C12.2922 39.913 12.4611 40.4608 12.4611 41.1499C12.4611 41.4945 12.4066 41.9157 12.2969 42.413L11.3279 46.8761H9.13673L10.1354 42.2986C10.2148 41.9642 10.2545 41.6863 10.2545 41.4662C10.2545 40.8922 10.0163 40.6055 9.53916 40.6055C9.21143 40.6055 8.91331 40.7394 8.6448 41.0072C8.37629 41.2751 8.14277 41.6365 7.94425 42.0907C7.74506 42.5449 7.58624 43.0544 7.46713 43.619L6.76658 46.8768H4.5761L5.57477 42.2993C5.65418 41.9649 5.69389 41.6869 5.69389 41.4669C5.69389 40.8928 5.45566 40.6062 4.97853 40.6062C4.6508 40.6062 4.35268 40.7428 4.08417 41.0153C3.81566 41.2879 3.58484 41.6539 3.39103 42.1129C3.19722 42.5719 3.03571 43.0793 2.9065 43.6338L2.19115 46.8768H0V46.8754Z" fill="#03294E"/>
<path d="M16.9684 46.9583C16.4307 46.9583 15.9523 46.8459 15.5337 46.6211C15.1151 46.3963 14.7887 46.0767 14.5552 45.6621C14.3217 45.2476 14.2046 44.7543 14.2046 44.181C14.2046 43.5464 14.284 42.9447 14.4428 42.3761C14.6016 41.8074 14.8399 41.3047 15.1568 40.8687C15.4745 40.4326 15.8728 40.0907 16.3533 39.8438C16.8338 39.5968 17.3957 39.4736 18.0391 39.4736C18.8763 39.4736 19.5418 39.7246 20.0358 40.2273C20.529 40.73 20.776 41.4306 20.776 42.3297C20.776 42.938 20.7013 43.5194 20.5512 44.0753C20.4012 44.6305 20.1697 45.1244 19.8568 45.5565C19.5438 45.9885 19.1468 46.3304 18.667 46.5814C18.1871 46.8331 17.6205 46.9583 16.9684 46.9583ZM17.1272 45.3714C17.4886 45.3714 17.7948 45.2261 18.0465 44.9353C18.2982 44.6446 18.4893 44.2678 18.6219 43.8048C18.7538 43.3418 18.8204 42.8505 18.8204 42.3303C18.8204 41.969 18.7518 41.6668 18.6151 41.4245C18.4785 41.1823 18.2383 41.0611 17.8944 41.0611C17.6037 41.0611 17.348 41.1601 17.1272 41.3586C16.9065 41.5571 16.7262 41.8148 16.5848 42.1325C16.4435 42.4501 16.3379 42.7893 16.2672 43.1507C16.1965 43.512 16.1615 43.8559 16.1615 44.1823C16.1622 44.975 16.4839 45.3714 17.1272 45.3714Z" fill="#03294E"/>
<path d="M21.5972 46.8263L23.1308 39.6061H24.612L24.4801 40.942H24.5333C24.8152 40.5099 25.1396 40.1573 25.505 39.8841C25.8704 39.6109 26.3052 39.4742 26.8079 39.4742C27.4337 39.4742 27.9008 39.6613 28.2096 40.0362C28.5179 40.411 28.6726 40.9157 28.6726 41.5503C28.6726 41.8679 28.6242 42.2556 28.5273 42.7139L27.6679 46.8263H25.7237L26.61 42.6082C26.6807 42.3 26.7157 42.0443 26.7157 41.841C26.7157 41.3121 26.4822 41.0476 26.0151 41.0476C25.7244 41.0476 25.4599 41.1735 25.2217 41.4245C24.9835 41.6755 24.7789 42.0126 24.6066 42.4359C24.435 42.8592 24.291 43.3262 24.1766 43.8377L23.542 46.8263H21.5972Z" fill="#03294E"/>
<path d="M32.7838 46.9582C31.9372 46.9582 31.2501 46.7267 30.7212 46.2637C30.1922 45.8007 29.9277 45.1022 29.9277 44.1674C29.9277 43.5591 30.0139 42.975 30.1855 42.4151C30.3571 41.8552 30.6128 41.3552 30.9526 40.9144C31.2918 40.4736 31.7131 40.123 32.2158 39.8632C32.7185 39.6035 33.2999 39.4729 33.9614 39.4729C34.7723 39.4729 35.3787 39.658 35.7798 40.0281C36.1808 40.3982 36.3814 40.87 36.3814 41.4433C36.3814 42.2017 36.0395 42.8101 35.3565 43.2684C34.6734 43.7267 33.631 43.9561 32.2292 43.9561H31.8982C31.8894 44.0093 31.8847 44.0551 31.8847 44.0948C31.8847 44.1345 31.8847 44.1762 31.8847 44.2206C31.8847 44.6089 31.9971 44.9171 32.2218 45.1466C32.4466 45.3761 32.7616 45.4905 33.1673 45.4905C33.5462 45.4905 33.8901 45.4467 34.199 45.3586C34.5072 45.2704 34.8733 45.1291 35.2966 44.9353V46.403C34.9177 46.5881 34.5341 46.7267 34.1458 46.8196C33.7582 46.9124 33.304 46.9582 32.7838 46.9582ZM32.4002 42.6479C33.1492 42.6479 33.6896 42.5315 34.02 42.2973C34.3504 42.0638 34.516 41.7926 34.516 41.4844C34.516 41.0792 34.2912 40.876 33.8417 40.876C33.6034 40.876 33.3659 40.9507 33.1276 41.1008C32.8894 41.2509 32.6801 41.4581 32.4998 41.7226C32.3187 41.9871 32.1889 42.296 32.1095 42.6486H32.4002V42.6479Z" fill="#03294E"/>
<path d="M39.3557 46.9582C38.7911 46.9582 38.3375 46.8371 37.9936 46.5948C37.6498 46.3526 37.4782 45.9185 37.4782 45.292C37.4782 45.0719 37.5044 44.829 37.5576 44.5645L38.2978 41.0867H37.3193L37.5044 40.1345L38.7736 39.5921L39.6202 38.0712H40.8766L40.5589 39.6048H42.384L42.0664 41.086H40.2413L39.5011 44.5639C39.4748 44.6964 39.4614 44.8108 39.4614 44.9077C39.4614 45.0753 39.5145 45.1964 39.6202 45.2711C39.7258 45.3458 39.8624 45.3835 40.03 45.3835C40.2063 45.3835 40.3759 45.364 40.5394 45.3243C40.7023 45.2846 40.8813 45.2294 41.0751 45.1587V46.613C40.8719 46.7099 40.6256 46.7913 40.3349 46.858C40.0441 46.9246 39.7171 46.9582 39.3557 46.9582Z" fill="#1D8DFF"/>
<path d="M42.3706 46.8263L43.9043 39.6061H45.3855L45.2529 40.942H45.3188C45.6095 40.4837 45.9406 40.1243 46.3108 39.8646C46.6809 39.6048 47.0995 39.4742 47.5672 39.4742C47.6728 39.4742 47.7852 39.481 47.9043 39.4938C48.0234 39.5072 48.1177 39.5227 48.1883 39.5402L47.765 41.4177C47.6944 41.3915 47.6015 41.3673 47.4871 41.3451C47.3727 41.3229 47.2489 41.3121 47.117 41.3121C46.6318 41.3121 46.1977 41.5039 45.8141 41.8875C45.4305 42.2711 45.1593 42.8417 45.0012 43.6001L44.3134 46.827H42.3706V46.8263Z" fill="#1D8DFF"/>
<path d="M47.9375 46.8263L49.4712 39.6061H51.4153L49.8817 46.8263H47.9375ZM50.7545 38.7071C50.4813 38.7071 50.2498 38.6479 50.06 38.5287C49.8702 38.4096 49.776 38.2051 49.776 37.9137C49.776 37.5435 49.8797 37.2616 50.0869 37.0671C50.2942 36.8733 50.5829 36.7764 50.953 36.7764C51.2087 36.7764 51.4335 36.8336 51.6273 36.948C51.8211 37.0624 51.918 37.2656 51.918 37.5563C51.918 37.9002 51.8231 38.1781 51.634 38.3894C51.4443 38.6014 51.1509 38.7071 50.7545 38.7071Z" fill="#1D8DFF"/>
<path d="M51.1904 50L53.3991 39.6062H54.8803L54.7746 40.7038H54.8278C55.0566 40.3956 55.3392 40.1136 55.6743 39.8572C56.0095 39.6015 56.4106 39.4736 56.8776 39.4736C57.2302 39.4736 57.5606 39.5598 57.8695 39.7314C58.1777 39.903 58.4294 40.1809 58.6232 40.5645C58.8171 40.9481 58.914 41.4615 58.914 42.1049C58.914 42.687 58.8345 43.2664 58.6757 43.8438C58.5169 44.4212 58.2921 44.9434 58.0014 45.4111C57.7107 45.8788 57.3601 46.253 56.9503 46.535C56.5404 46.8169 56.0795 46.9583 55.5687 46.9583C55.1279 46.9583 54.7887 46.8566 54.5505 46.6541C54.3123 46.4515 54.105 46.1998 53.9287 45.9004H53.8755C53.8493 46.253 53.8136 46.5747 53.7699 46.8654C53.7255 47.1561 53.6683 47.469 53.5983 47.8042L53.1353 49.9993H51.1904V50ZM55.2369 45.3849C55.4751 45.3849 55.6972 45.29 55.9045 45.1009C56.1118 44.9111 56.2921 44.6621 56.4469 44.3539C56.601 44.0457 56.7221 43.7018 56.8103 43.3223C56.8985 42.9434 56.9422 42.5645 56.9422 42.185C56.9422 41.4272 56.6602 41.0477 56.0956 41.0477C55.778 41.0477 55.5095 41.1621 55.2887 41.3916C55.068 41.621 54.8877 41.907 54.7463 42.2509C54.605 42.5948 54.5014 42.9474 54.4354 43.3088C54.3695 43.6702 54.3365 43.9831 54.3365 44.2476C54.3365 44.5915 54.4179 44.8667 54.5815 45.074C54.7457 45.2812 54.9637 45.3849 55.2369 45.3849Z" fill="#1D8DFF"/>
</g>
<defs>
<clipPath id="clip0_662_1954">
<rect width="58.9133" height="50" fill="white"/>
</clipPath>
</defs>
</svg>
